<svg xmlns="http://www.w3.org/2000/svg" viewBox="0 0 640 160" role="img" aria-label="IdeaForge">
  <defs>
    <linearGradient id="wordmark" x1="0" y1="0" x2="1" y2="0">
      <stop offset="0%" stop-color="#f8fafc"/>
      <stop offset="100%" stop-color="#cbd5e1"/>
    </linearGradient>
    <linearGradient id="accent" x1="0" y1="0" x2="1" y2="0">
      <stop offset="0%" stop-color="#fbbf24"/>
      <stop offset="100%" stop-color="#f97316"/>
    </linearGradient>
  </defs>

  <!-- inline icon (self-contained for GitHub rendering) -->
  <g transform="translate(8 8)">
    <svg width="144" height="144" viewBox="0 0 512 512">
      <defs>
        <linearGradient id="bg2" x1="0" y1="0" x2="1" y2="1">
          <stop offset="0%" stop-color="#1e1b4b"/>
          <stop offset="100%" stop-color="#0f172a"/>
        </linearGradient>
        <linearGradient id="wave2" x1="0" y1="1" x2="1" y2="0">
          <stop offset="0%" stop-color="#818cf8"/>
          <stop offset="55%" stop-color="#6366f1"/>
          <stop offset="100%" stop-color="#f59e0b"/>
        </linearGradient>
        <linearGradient id="spark2" x1="0" y1="0" x2="1" y2="1">
          <stop offset="0%" stop-color="#fde68a"/>
          <stop offset="100%" stop-color="#f97316"/>
        </linearGradient>
      </defs>
      <rect width="512" height="512" rx="112" fill="url(#bg2)"/>
      <path d="M96 360h320l-28 44c-8 12-22 20-38 20H162c-16 0-30-8-38-20l-28-44z" fill="#312e81" opacity="0.55"/>
      <g fill="url(#wave2)" opacity="0.95">
        <rect x="148" y="248" width="36" height="96" rx="18"/>
        <rect x="208" y="208" width="36" height="136" rx="18"/>
        <rect x="268" y="168" width="36" height="176" rx="18"/>
        <rect x="328" y="228" width="36" height="116" rx="18"/>
      </g>
      <g fill="#e2e8f0">
        <rect x="214" y="132" width="84" height="132" rx="42"/>
        <path d="M186 248a70 70 0 0 0 140 0" fill="none" stroke="#e2e8f0" stroke-width="16" stroke-linecap="round"/>
        <rect x="248" y="300" width="16" height="52" rx="8"/>
        <rect x="220" y="344" width="72" height="18" rx="9"/>
      </g>
      <g stroke="#94a3b8" stroke-width="6" stroke-linecap="round" opacity="0.85">
        <line x1="236" y1="168" x2="276" y2="168"/>
        <line x1="236" y1="192" x2="276" y2="192"/>
        <line x1="236" y1="216" x2="276" y2="216"/>
        <line x1="236" y1="240" x2="276" y2="240"/>
      </g>
      <g transform="translate(352 108)">
        <path d="M0 -34 L9 -9 L34 0 L9 9 L0 34 L-9 9 L-34 0 L-9 -9 Z" fill="url(#spark2)"/>
        <circle cx="0" cy="0" r="10" fill="#fff7ed" opacity="0.9"/>
      </g>
    </svg>
  </g>

  <text
    x="176"
    y="98"
    font-family="ui-sans-serif, system-ui, -apple-system, BlinkMacSystemFont, 'Segoe UI', sans-serif"
    font-size="64"
    font-weight="700"
    letter-spacing="-1.5"
    fill="url(#wordmark)"
  >Idea</text>
  <text
    x="352"
    y="98"
    font-family="ui-sans-serif, system-ui, -apple-system, BlinkMacSystemFont, 'Segoe UI', sans-serif"
    font-size="64"
    font-weight="700"
    letter-spacing="-1.5"
    fill="url(#accent)"
  >Forge</text>

  <text
    x="178"
    y="132"
    font-family="ui-sans-serif, system-ui, -apple-system, BlinkMacSystemFont, 'Segoe UI', sans-serif"
    font-size="18"
    font-weight="500"
    fill="#64748b"
    letter-spacing="0.2"
  >voice → notes</text>
</svg>